<svg width="393" height="197" viewBox="0 0 393 197" fill="none" xmlns="http://www.w3.org/2000/svg">
<path d="M0 0L393 14.5V174.5L0 197V0Z" fill="black" fill-opacity="0.24"/>
<path d="M391 172.611L2 194.882V2.07515L391 16.4276V172.611Z" stroke="white" stroke-opacity="0.88" stroke-width="4"/>
<path d="M285.128 86.2301C288.112 82.2901 289.776 77.8801 289.776 73.2101C289.776 56.6101 268.655 43.1601 242.588 43.1601C236.48 43.1601 230.638 43.9101 225.268 45.2601C218.405 41.4501 209.408 39.1001 199.64 39.1001C187.706 39.1001 177.028 42.5001 169.961 47.8001C164.465 45.9001 158.184 44.8001 151.589 44.8001C130.546 44.9001 113.43 55.7001 113.43 69.1001C113.43 74.1001 115.786 78.8001 120.025 82.7001C112.174 86.7001 106.678 92.6001 105.579 99.5001C103.537 112.9 119.083 125 140.439 126.3C145.464 126.6 150.175 126.3 154.729 125.5C156.457 136.2 170.589 144.5 187.863 144.5C198.855 144.5 208.591 141.1 214.558 135.9C220.211 138.7 227.278 140.5 235.129 140.5C252.403 140.5 266.693 132 267.949 121.3C281.296 117.4 290.718 108.8 290.718 98.8001C290.718 94.2101 288.63 89.8801 285.128 86.2301Z" fill="white" stroke="black" stroke-width="6" stroke-miterlimit="10"/>
<path d="M171.641 80.9102C171.191 81.7266 170.881 82.2793 170.709 82.5684C170.326 83.2012 169.961 83.7148 169.613 84.1094L167.398 84.6484C167.453 84.5117 167.51 83.5059 167.568 81.6309C167.611 79.9902 167.633 78.4629 167.633 77.0488C167.633 76.5488 167.625 76.2461 167.609 76.1406L169.754 75.6543C169.777 75.7324 169.789 75.9082 169.789 76.1816C169.789 77.0801 169.66 78.791 169.402 81.3145C169.785 80.6152 170.285 79.7812 170.902 78.8125C171.188 78.3516 171.451 77.9492 171.693 77.6055C171.693 76.7031 171.688 76.2148 171.676 76.1406L173.814 75.6543C173.842 75.7324 173.855 75.9082 173.855 76.1816C173.855 77.2051 173.725 78.916 173.463 81.3145C174.182 80.0215 174.996 78.7129 175.906 77.3887C176.332 76.7637 176.67 76.3223 176.92 76.0645L177.148 76.041C177.594 75.9902 178.105 75.9473 178.684 75.9121C178.34 76.3105 177.949 76.9043 177.512 77.6934C177.289 78.1113 176.947 78.7383 176.486 79.5742L175.174 81.9121C174.576 82.9277 174.078 83.6602 173.68 84.1094L171.459 84.6484C171.498 84.5391 171.539 83.8652 171.582 82.627C171.605 82.002 171.625 81.4297 171.641 80.9102ZM181.988 77.793C181.785 78.0742 181.365 78.7539 180.729 79.832L180.201 80.7227L181.391 80.6992L181.66 80.9102C181.887 80.418 182 79.5137 182 78.1973C182 77.998 181.996 77.8633 181.988 77.793ZM181.385 82.0176L179.604 82.1055C179.24 82.6875 178.906 83.4453 178.602 84.3789L176.381 84.9238C176.443 84.6816 176.732 84.041 177.248 83.002L177.781 81.918C178.285 80.8945 179.076 79.6348 180.154 78.1387C180.744 77.3105 181.328 76.5781 181.906 75.9414C182.246 75.9297 182.75 75.9062 183.418 75.8711L183.471 76.6211C183.506 77.1875 183.523 77.7324 183.523 78.2559C183.523 79.2832 183.447 80.2402 183.295 81.127C183.244 81.2793 183.127 81.916 182.943 83.0371C182.869 83.502 182.795 83.8809 182.721 84.1738L180.5 84.7129C180.656 84.209 180.951 83.3105 181.385 82.0176ZM191.738 75.9121L191.199 77.6172H190.496C189.809 77.6172 189.213 77.625 188.709 77.6406L189.225 77.916C188.846 78.6348 188.387 79.877 187.848 81.6426C187.648 82.3145 187.404 83.2266 187.115 84.3789L187.051 84.3965C186.527 84.4941 185.809 84.6699 184.895 84.9238C185.18 83.8301 185.508 82.7363 185.879 81.6426C186.105 80.9629 186.477 80.0586 186.992 78.9297C187.113 78.6484 187.309 78.2402 187.578 77.7051C186.84 77.7754 185.996 77.8711 185.047 77.9922L185.568 76.2344C186.416 76.1719 187.385 76.1074 188.475 76.041C189.143 76.002 190.23 75.959 191.738 75.9121ZM197.41 83.5234C196.594 84.4336 195.549 84.8887 194.275 84.8887C193.244 84.8887 192.439 84.5137 191.861 83.7637C191.33 83.0684 191.064 82.166 191.064 81.0566C191.064 80.8184 191.078 80.5645 191.105 80.2949C191.238 79.1074 191.73 78.084 192.582 77.2246C193.453 76.3496 194.449 75.9121 195.57 75.9121C197.266 75.9121 198.465 76.5195 199.168 77.7344L196.953 78.8594C196.652 78.2109 196.145 77.8867 195.43 77.8867C194.699 77.8867 194.09 78.1348 193.602 78.6309C193.141 79.1035 192.855 79.7305 192.746 80.5117C192.719 80.6914 192.705 80.8438 192.705 80.9688C192.705 81.5547 192.869 82.0566 193.197 82.4746C193.541 82.916 193.984 83.1367 194.527 83.1367C195.117 83.1367 195.635 82.8984 196.08 82.4219L197.41 83.5234ZM207.312 75.918C206.789 76.8672 206.238 77.998 205.66 79.3105C205.453 79.7832 205.146 80.6875 204.74 82.0234C204.631 82.3828 204.418 83.1016 204.102 84.1797L201.881 84.7188C202.154 83.8203 202.449 82.9219 202.766 82.0234C202.793 81.9414 202.885 81.6895 203.041 81.2676L200.768 81.5254L200.615 82.0234C200.494 82.4297 200.283 83.2168 199.982 84.3848L197.762 84.9297C198.016 83.9922 198.307 83.0234 198.635 82.0234C198.889 81.2656 199.258 80.3613 199.742 79.3105C200.113 78.5059 200.678 77.4258 201.436 76.0703L201.658 76.0469C202.104 75.9961 202.615 75.9531 203.193 75.918C202.783 76.6641 202.232 77.7949 201.541 79.3105C201.525 79.3457 201.461 79.5059 201.348 79.791L203.381 79.5332L203.592 79.9375C204.072 78.832 204.725 77.543 205.549 76.0703L205.789 76.0469C206.23 75.9961 206.738 75.9531 207.312 75.918ZM218.381 77.7344L217.877 78.0684C218.041 78.541 218.123 78.9453 218.123 79.2812C218.123 79.5234 218.086 79.8613 218.012 80.2949C217.777 81.6621 217.27 82.75 216.488 83.5586C215.633 84.4453 214.541 84.8887 213.213 84.8887C212.127 84.8887 211.279 84.5137 210.67 83.7637C210.107 83.0684 209.826 82.166 209.826 81.0566C209.826 80.8184 209.84 80.5645 209.867 80.2949C210.008 79.1074 210.527 78.084 211.426 77.2246C212.348 76.3496 213.4 75.9121 214.584 75.9121C216.373 75.9121 217.639 76.5195 218.381 77.7344ZM216.043 80.5117C216.074 80.3438 216.09 80.209 216.09 80.1074C216.09 79.6543 215.953 79.3066 215.68 79.0645L216.043 78.8594C215.727 78.2109 215.189 77.8867 214.432 77.8867C213.662 77.8867 213.02 78.1348 212.504 78.6309C212.02 79.1035 211.719 79.7305 211.602 80.5117C211.574 80.6914 211.561 80.8438 211.561 80.9688C211.561 81.5547 211.732 82.0566 212.076 82.4746C212.439 82.916 212.908 83.1367 213.482 83.1367C214.174 83.1367 214.754 82.8652 215.223 82.3223C215.641 81.8379 215.914 81.2344 216.043 80.5117ZM226.467 75.9121C226.314 76.2793 226.053 77.0586 225.682 78.25C225.314 79.4375 225.031 80.3145 224.832 80.8809C224.277 82.4473 223.645 83.5312 222.934 84.1328C222.332 84.6367 221.551 84.8887 220.59 84.8887C220.105 84.8887 219.625 84.7188 219.148 84.3789C218.465 83.8789 218.123 83.1465 218.123 82.1816C218.123 81.7793 218.182 81.3457 218.299 80.8809C218.67 79.4277 219.254 77.8477 220.051 76.1406L221.973 75.9121C221.547 76.9355 221.271 77.6035 221.146 77.916C220.67 79.123 220.338 80.1113 220.15 80.8809C220.084 81.1699 220.051 81.4531 220.051 81.7305C220.051 82.5898 220.359 83.0195 220.977 83.0195C221.68 83.0195 222.297 82.3066 222.828 80.8809L224.674 75.9121H226.467ZM233.059 75.9121L232.52 77.6172H231.816C231.129 77.6172 230.533 77.625 230.029 77.6406L230.545 77.916C230.166 78.6348 229.707 79.877 229.168 81.6426C228.969 82.3145 228.725 83.2266 228.436 84.3789L228.371 84.3965C227.848 84.4941 227.129 84.6699 226.215 84.9238C226.5 83.8301 226.828 82.7363 227.199 81.6426C227.426 80.9629 227.797 80.0586 228.312 78.9297C228.434 78.6484 228.629 78.2402 228.898 77.7051C228.16 77.7754 227.316 77.8711 226.367 77.9922L226.889 76.2344C227.736 76.1719 228.705 76.1074 229.795 76.041C230.463 76.002 231.551 75.959 233.059 75.9121ZM176.521 99.6133C175.877 99.6797 175.145 99.7832 174.324 99.9238V99.9062C174.324 99.8516 174.428 99.457 174.635 98.7227C174.877 97.875 175.094 97.1816 175.285 96.6426C175.605 95.748 175.971 94.8438 176.381 93.9297C176.537 93.5859 176.713 93.2285 176.908 92.8574C176.494 92.9043 176.107 92.9492 175.748 92.9922L176.264 91.2344C177.076 91.1719 178.047 91.1074 179.176 91.041C179.848 91.002 180.936 90.959 182.439 90.9121L181.9 92.6172H181.221C179.959 92.6172 178.971 92.6465 178.256 92.7051L178.625 92.916C178.566 93.0449 178.422 93.3828 178.191 93.9297C178.129 94.0703 178.059 94.2363 177.98 94.4277L180.506 94.334L179.973 95.8633L177.482 95.9512C177.393 96.2363 177.32 96.4609 177.266 96.625C176.91 97.6406 176.662 98.6367 176.521 99.6133ZM189.658 92.7344L189.154 93.0684C189.318 93.541 189.4 93.9453 189.4 94.2812C189.4 94.5234 189.363 94.8613 189.289 95.2949C189.055 96.6621 188.547 97.75 187.766 98.5586C186.91 99.4453 185.818 99.8887 184.49 99.8887C183.404 99.8887 182.557 99.5137 181.947 98.7637C181.385 98.0684 181.104 97.166 181.104 96.0566C181.104 95.8184 181.117 95.5645 181.145 95.2949C181.285 94.1074 181.805 93.084 182.703 92.2246C183.625 91.3496 184.678 90.9121 185.861 90.9121C187.65 90.9121 188.916 91.5195 189.658 92.7344ZM187.32 95.5117C187.352 95.3438 187.367 95.209 187.367 95.1074C187.367 94.6543 187.23 94.3066 186.957 94.0645L187.32 93.8594C187.004 93.2109 186.467 92.8867 185.709 92.8867C184.939 92.8867 184.297 93.1348 183.781 93.6309C183.297 94.1035 182.996 94.7305 182.879 95.5117C182.852 95.6914 182.838 95.8438 182.838 95.9688C182.838 96.5547 183.01 97.0566 183.354 97.4746C183.717 97.916 184.186 98.1367 184.76 98.1367C185.451 98.1367 186.031 97.8652 186.5 97.3223C186.918 96.8379 187.191 96.2344 187.32 95.5117ZM196.525 93.5488C196.279 94.8535 195.443 95.6699 194.018 95.998C194.932 96.9941 195.691 97.9961 196.297 99.0039L194.275 99.7363C193.693 98.5527 192.916 97.3945 191.943 96.2617L191.645 96.0156L191.445 96.625C191.309 97.0625 191.064 97.9766 190.713 99.3672L190.648 99.3789C190.023 99.5 189.305 99.6699 188.492 99.8887C188.766 98.834 189.092 97.7461 189.471 96.625C189.705 95.918 190.074 95.0137 190.578 93.9121C190.68 93.6934 190.826 93.3965 191.018 93.0215C190.854 93.0723 190.711 93.1133 190.59 93.1445L190.162 91.1406C191.166 90.9883 192.033 90.9121 192.764 90.9121C192.932 90.9121 193.121 90.9219 193.332 90.9414C193.91 90.9844 194.242 91.0137 194.328 91.0293C194.633 91.0762 194.973 91.1816 195.348 91.3457C196.168 91.6855 196.578 92.2695 196.578 93.0977C196.578 93.2148 196.561 93.3652 196.525 93.5488ZM194.738 93.3555C194.738 93.043 194.529 92.8105 194.111 92.6582C193.99 92.6113 193.793 92.5879 193.52 92.5879H193.367C193.125 92.5996 192.797 92.6621 192.383 92.7754L192.805 92.9922C192.664 93.2383 192.518 93.5449 192.365 93.9121C192.354 93.9395 192.275 94.1504 192.131 94.5449L192.635 94.5273C193.158 94.5156 193.6 94.4395 193.959 94.2988C194.479 94.0957 194.738 93.7812 194.738 93.3555ZM209.006 92.7344L208.502 93.0684C208.666 93.541 208.748 93.9453 208.748 94.2812C208.748 94.5234 208.711 94.8613 208.637 95.2949C208.402 96.6621 207.895 97.75 207.113 98.5586C206.258 99.4453 205.166 99.8887 203.838 99.8887C202.752 99.8887 201.904 99.5137 201.295 98.7637C200.732 98.0684 200.451 97.166 200.451 96.0566C200.451 95.8184 200.465 95.5645 200.492 95.2949C200.633 94.1074 201.152 93.084 202.051 92.2246C202.973 91.3496 204.025 90.9121 205.209 90.9121C206.998 90.9121 208.264 91.5195 209.006 92.7344ZM206.668 95.5117C206.699 95.3438 206.715 95.209 206.715 95.1074C206.715 94.6543 206.578 94.3066 206.305 94.0645L206.668 93.8594C206.352 93.2109 205.814 92.8867 205.057 92.8867C204.287 92.8867 203.645 93.1348 203.129 93.6309C202.645 94.1035 202.344 94.7305 202.227 95.5117C202.199 95.6914 202.186 95.8438 202.186 95.9688C202.186 96.5547 202.357 97.0566 202.701 97.4746C203.064 97.916 203.533 98.1367 204.107 98.1367C204.799 98.1367 205.379 97.8652 205.848 97.3223C206.266 96.8379 206.539 96.2344 206.668 95.5117ZM217.092 90.9121C216.939 91.2793 216.678 92.0586 216.307 93.25C215.939 94.4375 215.656 95.3145 215.457 95.8809C214.902 97.4473 214.27 98.5312 213.559 99.1328C212.957 99.6367 212.176 99.8887 211.215 99.8887C210.73 99.8887 210.25 99.7188 209.773 99.3789C209.09 98.8789 208.748 98.1465 208.748 97.1816C208.748 96.7793 208.807 96.3457 208.924 95.8809C209.295 94.4277 209.879 92.8477 210.676 91.1406L212.598 90.9121C212.172 91.9355 211.896 92.6035 211.771 92.916C211.295 94.123 210.963 95.1113 210.775 95.8809C210.709 96.1699 210.676 96.4531 210.676 96.7305C210.676 97.5898 210.984 98.0195 211.602 98.0195C212.305 98.0195 212.922 97.3066 213.453 95.8809L215.299 90.9121H217.092ZM223.49 93.5488C223.244 94.8535 222.408 95.6699 220.982 95.998C221.896 96.9941 222.656 97.9961 223.262 99.0039L221.24 99.7363C220.658 98.5527 219.881 97.3945 218.908 96.2617L218.609 96.0156L218.41 96.625C218.273 97.0625 218.029 97.9766 217.678 99.3672L217.613 99.3789C216.988 99.5 216.27 99.6699 215.457 99.8887C215.73 98.834 216.057 97.7461 216.436 96.625C216.67 95.918 217.039 95.0137 217.543 93.9121C217.645 93.6934 217.791 93.3965 217.982 93.0215C217.818 93.0723 217.676 93.1133 217.555 93.1445L217.127 91.1406C218.131 90.9883 218.998 90.9121 219.729 90.9121C219.896 90.9121 220.086 90.9219 220.297 90.9414C220.875 90.9844 221.207 91.0137 221.293 91.0293C221.598 91.0762 221.938 91.1816 222.312 91.3457C223.133 91.6855 223.543 92.2695 223.543 93.0977C223.543 93.2148 223.525 93.3652 223.49 93.5488ZM221.703 93.3555C221.703 93.043 221.494 92.8105 221.076 92.6582C220.955 92.6113 220.758 92.5879 220.484 92.5879H220.332C220.09 92.5996 219.762 92.6621 219.348 92.7754L219.77 92.9922C219.629 93.2383 219.482 93.5449 219.33 93.9121C219.318 93.9395 219.24 94.1504 219.096 94.5449L219.6 94.5273C220.123 94.5156 220.564 94.4395 220.924 94.2988C221.443 94.0957 221.703 93.7812 221.703 93.3555ZM183.354 113.523C182.537 114.434 181.492 114.889 180.219 114.889C179.188 114.889 178.383 114.514 177.805 113.764C177.273 113.068 177.008 112.166 177.008 111.057C177.008 110.818 177.021 110.564 177.049 110.295C177.182 109.107 177.674 108.084 178.525 107.225C179.396 106.35 180.393 105.912 181.514 105.912C183.209 105.912 184.408 106.52 185.111 107.734L182.896 108.859C182.596 108.211 182.088 107.887 181.373 107.887C180.643 107.887 180.033 108.135 179.545 108.631C179.084 109.104 178.799 109.73 178.689 110.512C178.662 110.691 178.648 110.844 178.648 110.969C178.648 111.555 178.812 112.057 179.141 112.475C179.484 112.916 179.928 113.137 180.471 113.137C181.061 113.137 181.578 112.898 182.023 112.422L183.354 113.523ZM193.18 107.734L192.676 108.068C192.84 108.541 192.922 108.945 192.922 109.281C192.922 109.523 192.885 109.861 192.811 110.295C192.576 111.662 192.068 112.75 191.287 113.559C190.432 114.445 189.34 114.889 188.012 114.889C186.926 114.889 186.078 114.514 185.469 113.764C184.906 113.068 184.625 112.166 184.625 111.057C184.625 110.818 184.639 110.564 184.666 110.295C184.807 109.107 185.326 108.084 186.225 107.225C187.146 106.35 188.199 105.912 189.383 105.912C191.172 105.912 192.438 106.52 193.18 107.734ZM190.842 110.512C190.873 110.344 190.889 110.209 190.889 110.107C190.889 109.654 190.752 109.307 190.479 109.064L190.842 108.859C190.525 108.211 189.988 107.887 189.23 107.887C188.461 107.887 187.818 108.135 187.303 108.631C186.818 109.104 186.518 109.73 186.4 110.512C186.373 110.691 186.359 110.844 186.359 110.969C186.359 111.555 186.531 112.057 186.875 112.475C187.238 112.916 187.707 113.137 188.281 113.137C188.973 113.137 189.553 112.865 190.021 112.322C190.439 111.838 190.713 111.234 190.842 110.512ZM204.236 105.607L203.375 109.369C203.352 109.463 203.25 109.895 203.07 110.664L202.678 112.375C202.518 113.051 202.379 113.719 202.262 114.379L199.578 115.111C199.77 114.404 200.064 113.436 200.463 112.205C200.584 111.838 200.783 111.189 201.061 110.26C201.189 109.826 201.383 109.256 201.641 108.549C201.145 108.725 200.387 109.674 199.367 111.396C198.984 112.041 198.613 112.967 198.254 114.174L196.033 114.713C196.049 114.631 196.057 114.504 196.057 114.332C196.057 113.492 195.953 112.379 195.746 110.992C195.668 110.445 195.6 110.172 195.541 110.172L194.768 112.018C194.416 112.854 194.205 113.641 194.135 114.379L191.914 114.924C192.172 113.971 192.463 113.002 192.787 112.018C193.037 111.271 193.406 110.367 193.895 109.305C194.105 108.836 194.402 108.248 194.785 107.541C194.809 107.471 194.82 107.414 194.82 107.371C194.82 107.242 194.77 107.039 194.668 106.762C194.543 106.402 194.473 106.195 194.457 106.141L196.607 105.654C196.865 106.518 197.092 107.314 197.287 108.045C197.568 109.088 197.721 109.98 197.744 110.723C198.502 109.145 199.422 107.945 200.504 107.125C200.91 106.77 201.326 106.477 201.752 106.246C202.076 106.078 202.424 105.953 202.795 105.871C203.279 105.758 203.574 105.691 203.68 105.672C203.883 105.641 204.068 105.619 204.236 105.607ZM204.787 113.242L204.986 112.574C205.033 112.422 205.133 112.111 205.285 111.643C205.52 110.939 205.889 110.035 206.393 108.93C206.518 108.641 206.715 108.232 206.984 107.705C206.559 107.775 205.912 107.871 205.045 107.992L205.561 106.234C206.174 106.18 206.945 106.115 207.875 106.041C208.848 105.967 209.701 105.924 210.436 105.912L209.896 107.617C209.146 107.617 208.553 107.625 208.115 107.641L208.625 107.916C208.508 108.143 208.359 108.48 208.18 108.93C207.957 109.48 207.648 110.385 207.254 111.643C207.113 112.107 206.979 112.59 206.85 113.09C206.975 113.082 207.191 113.07 207.5 113.055L208.408 113.02L207.869 114.73C206.955 114.73 206.359 114.738 206.082 114.754C205.633 114.785 204.611 114.904 203.018 115.111L203.533 113.348L204.119 113.289C204.287 113.277 204.51 113.262 204.787 113.242ZM216.166 113.523C215.35 114.434 214.305 114.889 213.031 114.889C212 114.889 211.195 114.514 210.617 113.764C210.086 113.068 209.82 112.166 209.82 111.057C209.82 110.818 209.834 110.564 209.861 110.295C209.994 109.107 210.486 108.084 211.338 107.225C212.209 106.35 213.205 105.912 214.326 105.912C216.021 105.912 217.221 106.52 217.924 107.734L215.709 108.859C215.408 108.211 214.9 107.887 214.186 107.887C213.455 107.887 212.846 108.135 212.357 108.631C211.896 109.104 211.611 109.73 211.502 110.512C211.475 110.691 211.461 110.844 211.461 110.969C211.461 111.555 211.625 112.057 211.953 112.475C212.297 112.916 212.74 113.137 213.283 113.137C213.873 113.137 214.391 112.898 214.836 112.422L216.166 113.523ZM222.084 107.57C221.764 107.582 221.488 107.613 221.258 107.664C220.68 107.797 220.27 108.031 220.027 108.367C219.945 108.484 219.904 108.605 219.904 108.73C219.904 108.945 220.016 109.213 220.238 109.533C220.535 109.963 220.707 110.229 220.754 110.33C221.027 110.967 221.164 111.465 221.164 111.824V111.965C221.082 112.852 220.574 113.604 219.641 114.221C219.129 114.564 218.309 114.877 217.18 115.158L216.77 112.973C217.195 112.918 217.58 112.832 217.924 112.715C218.732 112.438 219.137 112.066 219.137 111.602V111.525C219.137 111.291 219.062 111.027 218.914 110.734C218.832 110.613 218.688 110.389 218.48 110.061C218.113 109.482 217.93 108.98 217.93 108.555C217.93 107.645 218.27 106.99 218.949 106.592C219.473 106.287 220.26 106.004 221.311 105.742L222.084 107.57Z" fill="black"/>
</svg>
