<svg width="393" height="197" viewBox="0 0 393 197" fill="none" xmlns="http://www.w3.org/2000/svg">
<path d="M393 0L0 14.5V174.5L393 197V0Z" fill="black" fill-opacity="0.24"/>
<path d="M2 172.611L391 194.882V2.07515L2 16.4276V172.611Z" stroke="white" stroke-opacity="0.88" stroke-width="4"/>
<path d="M366.128 86.2301C369.112 82.2901 370.776 77.8801 370.776 73.2101C370.776 56.6101 349.655 43.1601 323.588 43.1601C317.48 43.1601 311.638 43.9101 306.268 45.2601C299.405 41.4501 290.408 39.1001 280.64 39.1001C268.706 39.1001 258.028 42.5001 250.961 47.8001C245.465 45.9001 239.184 44.8001 232.589 44.8001C211.546 44.9001 194.43 55.7001 194.43 69.1001C194.43 74.1001 196.786 78.8001 201.025 82.7001C193.174 86.7001 187.678 92.6001 186.579 99.5001C184.537 112.9 200.083 125 221.439 126.3C226.464 126.6 231.175 126.3 235.729 125.5C237.457 136.2 251.589 144.5 268.863 144.5C279.855 144.5 289.591 141.1 295.558 135.9C301.211 138.7 308.278 140.5 316.129 140.5C333.403 140.5 347.693 132 348.949 121.3C362.296 117.4 371.718 108.8 371.718 98.8001C371.718 94.2101 369.63 89.8801 366.128 86.2301Z" fill="white" stroke="black" stroke-width="6" stroke-miterlimit="10"/>
<path d="M264.096 75.9121L263.557 77.6172H262.854C262.166 77.6172 261.57 77.625 261.066 77.6406L261.582 77.916C261.203 78.6348 260.744 79.877 260.205 81.6426C260.006 82.3145 259.762 83.2266 259.473 84.3789L259.408 84.3965C258.885 84.4941 258.166 84.6699 257.252 84.9238C257.537 83.8301 257.865 82.7363 258.236 81.6426C258.463 80.9629 258.834 80.0586 259.35 78.9297C259.471 78.6484 259.666 78.2402 259.936 77.7051C259.197 77.7754 258.354 77.8711 257.404 77.9922L257.926 76.2344C258.773 76.1719 259.742 76.1074 260.832 76.041C261.5 76.002 262.588 75.959 264.096 75.9121ZM271.76 75.918C271.236 76.8672 270.686 77.998 270.107 79.3105C269.9 79.7832 269.594 80.6875 269.188 82.0234C269.078 82.3828 268.865 83.1016 268.549 84.1797L266.328 84.7188C266.602 83.8203 266.896 82.9219 267.213 82.0234C267.24 81.9414 267.332 81.6895 267.488 81.2676L265.215 81.5254L265.062 82.0234C264.941 82.4297 264.73 83.2168 264.43 84.3848L262.209 84.9297C262.463 83.9922 262.754 83.0234 263.082 82.0234C263.336 81.2656 263.705 80.3613 264.189 79.3105C264.561 78.5059 265.125 77.4258 265.883 76.0703L266.105 76.0469C266.551 75.9961 267.062 75.9531 267.641 75.918C267.23 76.6641 266.68 77.7949 265.988 79.3105C265.973 79.3457 265.908 79.5059 265.795 79.791L267.828 79.5332L268.039 79.9375C268.52 78.832 269.172 77.543 269.996 76.0703L270.236 76.0469C270.678 75.9961 271.186 75.9531 271.76 75.918ZM277.707 75.9121L277.168 77.6172H276.488C275.227 77.6172 274.238 77.6465 273.523 77.7051L273.893 77.916C273.834 78.0449 273.689 78.3828 273.459 78.9297C273.396 79.0703 273.326 79.2363 273.248 79.4277L275.773 79.334L275.24 80.8633L272.75 80.9512C272.57 81.4824 272.371 82.1582 272.152 82.9785C272.832 82.9395 273.848 82.8887 275.199 82.8262L274.643 84.5195C274.291 84.5156 273.986 84.5137 273.729 84.5137H273.383C272.523 84.5137 271.26 84.6504 269.592 84.9238V84.9062C269.592 84.8516 269.695 84.457 269.902 83.7227C270.145 82.875 270.361 82.1816 270.553 81.6426C270.873 80.748 271.238 79.8438 271.648 78.9297C271.805 78.5859 271.98 78.2285 272.176 77.8574C271.762 77.9043 271.375 77.9492 271.016 77.9922L271.531 76.2344C272.344 76.1719 273.314 76.1074 274.443 76.041C275.115 76.002 276.203 75.959 277.707 75.9121ZM285.682 78.3555C285.682 78.043 285.473 77.8105 285.055 77.6582C284.934 77.6113 284.736 77.5879 284.463 77.5879H284.311C284.068 77.5996 283.74 77.6621 283.326 77.7754L283.748 77.9922C283.607 78.2383 283.461 78.5449 283.309 78.9121C283.297 78.9395 283.219 79.1504 283.074 79.5449L283.578 79.5273C284.102 79.5156 284.543 79.4395 284.902 79.2988C285.422 79.0957 285.682 78.7812 285.682 78.3555ZM284.463 81.7422C284.463 81.4258 284.256 81.1934 283.842 81.0449C283.717 80.998 283.518 80.9746 283.244 80.9746H283.092C283.068 80.9746 283.035 80.9707 282.992 80.9629C282.949 80.9551 282.92 80.9512 282.904 80.9512C282.854 80.9512 282.764 80.9727 282.635 81.0156L282.518 81.3789C282.4 81.6133 282.258 81.9199 282.09 82.2988C282.062 82.3691 281.986 82.5781 281.861 82.9258L282.365 82.9199C282.881 82.9043 283.318 82.8262 283.678 82.6855C284.201 82.4824 284.463 82.168 284.463 81.7422ZM285.969 80.5762C286.195 81.0059 286.309 81.3066 286.309 81.4785C286.309 81.6035 286.291 81.7559 286.256 81.9355C285.998 83.2598 285.162 84.0801 283.748 84.3965C283.689 84.4043 283.191 84.459 282.254 84.5605L280.865 84.7129C280.357 84.7715 279.881 84.8301 279.436 84.8887C279.709 83.834 280.035 82.7461 280.414 81.625C280.648 80.918 281.018 80.0137 281.521 78.9121C281.623 78.6934 281.77 78.3965 281.961 78.0215C281.797 78.0723 281.654 78.1133 281.533 78.1445L281.105 76.1406C282.109 75.9883 282.977 75.9121 283.707 75.9121C283.875 75.9121 284.064 75.9219 284.275 75.9414C284.854 75.9844 285.186 76.0137 285.271 76.0293C285.576 76.0762 285.916 76.1816 286.291 76.3457C287.111 76.6855 287.521 77.2695 287.521 78.0977C287.521 78.2188 287.504 78.3691 287.469 78.5488C287.312 79.3652 286.812 80.041 285.969 80.5762ZM294.418 75.9121L293.879 77.6172H293.199C291.938 77.6172 290.949 77.6465 290.234 77.7051L290.604 77.916C290.545 78.0449 290.4 78.3828 290.17 78.9297C290.107 79.0703 290.037 79.2363 289.959 79.4277L292.484 79.334L291.951 80.8633L289.461 80.9512C289.281 81.4824 289.082 82.1582 288.863 82.9785C289.543 82.9395 290.559 82.8887 291.91 82.8262L291.354 84.5195C291.002 84.5156 290.697 84.5137 290.439 84.5137H290.094C289.234 84.5137 287.971 84.6504 286.303 84.9238V84.9062C286.303 84.8516 286.406 84.457 286.613 83.7227C286.855 82.875 287.072 82.1816 287.264 81.6426C287.584 80.748 287.949 79.8438 288.359 78.9297C288.516 78.5859 288.691 78.2285 288.887 77.8574C288.473 77.9043 288.086 77.9492 287.727 77.9922L288.242 76.2344C289.055 76.1719 290.025 76.1074 291.154 76.041C291.826 76.002 292.914 75.959 294.418 75.9121ZM297.67 77.5703C297.35 77.582 297.074 77.6133 296.844 77.6641C296.266 77.7969 295.855 78.0312 295.613 78.3672C295.531 78.4844 295.49 78.6055 295.49 78.7305C295.49 78.9453 295.602 79.2129 295.824 79.5332C296.121 79.9629 296.293 80.2285 296.34 80.3301C296.613 80.9668 296.75 81.4648 296.75 81.8242V81.9648C296.668 82.8516 296.16 83.6035 295.227 84.2207C294.715 84.5645 293.895 84.877 292.766 85.1582L292.355 82.9727C292.781 82.918 293.166 82.832 293.51 82.7148C294.318 82.4375 294.723 82.0664 294.723 81.6016V81.5254C294.723 81.291 294.648 81.0273 294.5 80.7344C294.418 80.6133 294.273 80.3887 294.066 80.0605C293.699 79.4824 293.516 78.9805 293.516 78.5547C293.516 77.6445 293.855 76.9902 294.535 76.5918C295.059 76.2871 295.846 76.0039 296.896 75.7422L297.67 77.5703ZM305.123 75.9121L304.584 77.6172H303.881C303.193 77.6172 302.598 77.625 302.094 77.6406L302.609 77.916C302.23 78.6348 301.771 79.877 301.232 81.6426C301.033 82.3145 300.789 83.2266 300.5 84.3789L300.436 84.3965C299.912 84.4941 299.193 84.6699 298.279 84.9238C298.564 83.8301 298.893 82.7363 299.264 81.6426C299.49 80.9629 299.861 80.0586 300.377 78.9297C300.498 78.6484 300.693 78.2402 300.963 77.7051C300.225 77.7754 299.381 77.8711 298.432 77.9922L298.953 76.2344C299.801 76.1719 300.77 76.1074 301.859 76.041C302.527 76.002 303.615 75.959 305.123 75.9121ZM250.59 95.9102C250.141 96.7266 249.83 97.2793 249.658 97.5684C249.275 98.2012 248.91 98.7148 248.562 99.1094L246.348 99.6484C246.402 99.5117 246.459 98.5059 246.518 96.6309C246.561 94.9902 246.582 93.4629 246.582 92.0488C246.582 91.5488 246.574 91.2461 246.559 91.1406L248.703 90.6543C248.727 90.7324 248.738 90.9082 248.738 91.1816C248.738 92.0801 248.609 93.791 248.352 96.3145C248.734 95.6152 249.234 94.7812 249.852 93.8125C250.137 93.3516 250.4 92.9492 250.643 92.6055C250.643 91.7031 250.637 91.2148 250.625 91.1406L252.764 90.6543C252.791 90.7324 252.805 90.9082 252.805 91.1816C252.805 92.2051 252.674 93.916 252.412 96.3145C253.131 95.0215 253.945 93.7129 254.855 92.3887C255.281 91.7637 255.619 91.3223 255.869 91.0645L256.098 91.041C256.543 90.9902 257.055 90.9473 257.633 90.9121C257.289 91.3105 256.898 91.9043 256.461 92.6934C256.238 93.1113 255.896 93.7383 255.436 94.5742L254.123 96.9121C253.525 97.9277 253.027 98.6602 252.629 99.1094L250.408 99.6484C250.447 99.5391 250.488 98.8652 250.531 97.627C250.555 97.002 250.574 96.4297 250.59 95.9102ZM264.799 92.7344L264.295 93.0684C264.459 93.541 264.541 93.9453 264.541 94.2812C264.541 94.5234 264.504 94.8613 264.43 95.2949C264.195 96.6621 263.688 97.75 262.906 98.5586C262.051 99.4453 260.959 99.8887 259.631 99.8887C258.545 99.8887 257.697 99.5137 257.088 98.7637C256.525 98.0684 256.244 97.166 256.244 96.0566C256.244 95.8184 256.258 95.5645 256.285 95.2949C256.426 94.1074 256.945 93.084 257.844 92.2246C258.766 91.3496 259.818 90.9121 261.002 90.9121C262.791 90.9121 264.057 91.5195 264.799 92.7344ZM262.461 95.5117C262.492 95.3438 262.508 95.209 262.508 95.1074C262.508 94.6543 262.371 94.3066 262.098 94.0645L262.461 93.8594C262.145 93.2109 261.607 92.8867 260.85 92.8867C260.08 92.8867 259.438 93.1348 258.922 93.6309C258.438 94.1035 258.137 94.7305 258.02 95.5117C257.992 95.6914 257.979 95.8438 257.979 95.9688C257.979 96.5547 258.15 97.0566 258.494 97.4746C258.857 97.916 259.326 98.1367 259.9 98.1367C260.592 98.1367 261.172 97.8652 261.641 97.3223C262.059 96.8379 262.332 96.2344 262.461 95.5117ZM271.666 93.5488C271.42 94.8535 270.584 95.6699 269.158 95.998C270.072 96.9941 270.832 97.9961 271.438 99.0039L269.416 99.7363C268.834 98.5527 268.057 97.3945 267.084 96.2617L266.785 96.0156L266.586 96.625C266.449 97.0625 266.205 97.9766 265.854 99.3672L265.789 99.3789C265.164 99.5 264.445 99.6699 263.633 99.8887C263.906 98.834 264.232 97.7461 264.611 96.625C264.846 95.918 265.215 95.0137 265.719 93.9121C265.82 93.6934 265.967 93.3965 266.158 93.0215C265.994 93.0723 265.852 93.1133 265.73 93.1445L265.303 91.1406C266.307 90.9883 267.174 90.9121 267.904 90.9121C268.072 90.9121 268.262 90.9219 268.473 90.9414C269.051 90.9844 269.383 91.0137 269.469 91.0293C269.773 91.0762 270.113 91.1816 270.488 91.3457C271.309 91.6855 271.719 92.2695 271.719 93.0977C271.719 93.2148 271.701 93.3652 271.666 93.5488ZM269.879 93.3555C269.879 93.043 269.67 92.8105 269.252 92.6582C269.131 92.6113 268.934 92.5879 268.66 92.5879H268.508C268.266 92.5996 267.938 92.6621 267.523 92.7754L267.945 92.9922C267.805 93.2383 267.658 93.5449 267.506 93.9121C267.494 93.9395 267.416 94.1504 267.271 94.5449L267.775 94.5273C268.299 94.5156 268.74 94.4395 269.1 94.2988C269.619 94.0957 269.879 93.7812 269.879 93.3555ZM274.596 94.5449L273.447 97.668C274.42 97.4414 275.316 96.9082 276.137 96.0684C276.797 95.3809 277.127 94.668 277.127 93.9297C277.127 93.1836 276.984 92.7598 276.699 92.6582C276.379 92.5449 276.117 92.4883 275.914 92.4883H275.891C275.352 92.5117 274.926 92.5684 274.613 92.6582L275.27 92.9922C275.211 93.0938 275.064 93.4004 274.83 93.9121C274.787 94.0371 274.709 94.248 274.596 94.5449ZM273.365 99.4609L272.926 99.5957C272.23 99.6895 271.574 99.752 270.957 99.7832C271.051 99.5059 271.309 98.75 271.73 97.5156C271.938 96.9023 272.256 95.9883 272.686 94.7734C272.869 94.2773 273.168 93.6367 273.582 92.8516C273.453 92.9336 273.277 93.0312 273.055 93.1445L272.627 91.1406C273.631 90.9883 274.498 90.9121 275.229 90.9121C275.396 90.9121 275.586 90.9219 275.797 90.9414C276.375 90.9844 276.707 91.0137 276.793 91.0293C277.098 91.0762 277.438 91.1816 277.812 91.3457C278.633 91.6855 279.043 92.2695 279.043 93.0977C279.043 93.2539 279.025 93.4043 278.99 93.5488C278.658 96.4004 276.783 98.3711 273.365 99.4609ZM287.404 97.4219L287.398 97.4277L287.498 97.1699C287.471 97.2598 287.445 97.3477 287.422 97.4336L287.404 97.4219ZM287.404 99.707C286.994 99.832 286.555 99.8945 286.086 99.8945C285.055 99.8945 284.25 99.5195 283.672 98.7695C283.141 98.0742 282.875 97.1719 282.875 96.0625C282.875 95.8242 282.889 95.5703 282.916 95.3008C283.049 94.1133 283.541 93.0898 284.393 92.2305C285.264 91.3555 286.26 90.918 287.381 90.918C289.076 90.918 290.275 91.5254 290.979 92.7402L288.764 93.8652C288.463 93.2168 287.955 92.8926 287.24 92.8926C286.51 92.8926 285.9 93.1406 285.412 93.6367C284.951 94.1094 284.666 94.7363 284.557 95.5176C284.529 95.6973 284.516 95.8496 284.516 95.9746C284.516 96.5605 284.68 97.0625 285.008 97.4805C285.352 97.9219 285.795 98.1426 286.338 98.1426C286.924 98.1426 287.438 97.9082 287.879 97.4395L288.412 95.7637L290.475 95.5234C290.225 96.2422 290.047 96.877 289.941 97.4277C289.777 97.9941 289.652 98.4551 289.566 98.8105L289.355 99.6484C288.867 99.7227 288.213 99.8047 287.393 99.8945C287.393 99.8398 287.396 99.7773 287.404 99.707ZM295.812 92.793C295.609 93.0742 295.189 93.7539 294.553 94.832L294.025 95.7227L295.215 95.6992L295.484 95.9102C295.711 95.418 295.824 94.5137 295.824 93.1973C295.824 92.998 295.82 92.8633 295.812 92.793ZM295.209 97.0176L293.428 97.1055C293.064 97.6875 292.73 98.4453 292.426 99.3789L290.205 99.9238C290.268 99.6816 290.557 99.041 291.072 98.002L291.605 96.918C292.109 95.8945 292.9 94.6348 293.979 93.1387C294.568 92.3105 295.152 91.5781 295.73 90.9414C296.07 90.9297 296.574 90.9062 297.242 90.8711L297.295 91.6211C297.33 92.1875 297.348 92.7324 297.348 93.2559C297.348 94.2832 297.271 95.2402 297.119 96.127C297.068 96.2793 296.951 96.916 296.768 98.0371C296.693 98.502 296.619 98.8809 296.545 99.1738L294.324 99.7129C294.48 99.209 294.775 98.3105 295.209 97.0176ZM309.559 90.6074L308.697 94.3691C308.674 94.4629 308.572 94.8945 308.393 95.6641L308 97.375C307.84 98.0508 307.701 98.7188 307.584 99.3789L304.9 100.111C305.092 99.4043 305.387 98.4355 305.785 97.2051C305.906 96.8379 306.105 96.1895 306.383 95.2598C306.512 94.8262 306.705 94.2559 306.963 93.5488C306.467 93.7246 305.709 94.6738 304.689 96.3965C304.307 97.041 303.936 97.9668 303.576 99.1738L301.355 99.7129C301.371 99.6309 301.379 99.5039 301.379 99.332C301.379 98.4922 301.275 97.3789 301.068 95.9922C300.99 95.4453 300.922 95.1719 300.863 95.1719L300.09 97.0176C299.738 97.8535 299.527 98.6406 299.457 99.3789L297.236 99.9238C297.494 98.9707 297.785 98.002 298.109 97.0176C298.359 96.2715 298.729 95.3672 299.217 94.3047C299.428 93.8359 299.725 93.248 300.107 92.541C300.131 92.4707 300.143 92.4141 300.143 92.3711C300.143 92.2422 300.092 92.0391 299.99 91.7617C299.865 91.4023 299.795 91.1953 299.779 91.1406L301.93 90.6543C302.188 91.5176 302.414 92.3145 302.609 93.0449C302.891 94.0879 303.043 94.9805 303.066 95.7227C303.824 94.1445 304.744 92.9453 305.826 92.125C306.232 91.7695 306.648 91.4766 307.074 91.2461C307.398 91.0781 307.746 90.9531 308.117 90.8711C308.602 90.7578 308.896 90.6914 309.002 90.6719C309.205 90.6406 309.391 90.6191 309.559 90.6074ZM316.537 90.9121L315.998 92.6172H315.318C314.057 92.6172 313.068 92.6465 312.354 92.7051L312.723 92.916C312.664 93.0449 312.52 93.3828 312.289 93.9297C312.227 94.0703 312.156 94.2363 312.078 94.4277L314.604 94.334L314.07 95.8633L311.58 95.9512C311.4 96.4824 311.201 97.1582 310.982 97.9785C311.662 97.9395 312.678 97.8887 314.029 97.8262L313.473 99.5195C313.121 99.5156 312.816 99.5137 312.559 99.5137H312.213C311.354 99.5137 310.09 99.6504 308.422 99.9238V99.9062C308.422 99.8516 308.525 99.457 308.732 98.7227C308.975 97.875 309.191 97.1816 309.383 96.6426C309.703 95.748 310.068 94.8438 310.479 93.9297C310.635 93.5859 310.811 93.2285 311.006 92.8574C310.592 92.9043 310.205 92.9492 309.846 92.9922L310.361 91.2344C311.174 91.1719 312.145 91.1074 313.273 91.041C313.945 91.002 315.033 90.959 316.537 90.9121ZM257.961 114.613C257.316 114.68 256.584 114.783 255.764 114.924V114.906C255.764 114.852 255.867 114.457 256.074 113.723C256.316 112.875 256.533 112.182 256.725 111.643C257.045 110.748 257.41 109.844 257.82 108.93C257.977 108.586 258.152 108.229 258.348 107.857C257.934 107.904 257.547 107.949 257.188 107.992L257.703 106.234C258.516 106.172 259.486 106.107 260.615 106.041C261.287 106.002 262.375 105.959 263.879 105.912L263.34 107.617H262.66C261.398 107.617 260.41 107.646 259.695 107.705L260.064 107.916C260.006 108.045 259.861 108.383 259.631 108.93C259.568 109.07 259.498 109.236 259.42 109.428L261.945 109.334L261.412 110.863L258.922 110.951C258.832 111.236 258.76 111.461 258.705 111.625C258.35 112.641 258.102 113.637 257.961 114.613ZM271.098 107.734L270.594 108.068C270.758 108.541 270.84 108.945 270.84 109.281C270.84 109.523 270.803 109.861 270.729 110.295C270.494 111.662 269.986 112.75 269.205 113.559C268.35 114.445 267.258 114.889 265.93 114.889C264.844 114.889 263.996 114.514 263.387 113.764C262.824 113.068 262.543 112.166 262.543 111.057C262.543 110.818 262.557 110.564 262.584 110.295C262.725 109.107 263.244 108.084 264.143 107.225C265.064 106.35 266.117 105.912 267.301 105.912C269.09 105.912 270.355 106.52 271.098 107.734ZM268.76 110.512C268.791 110.344 268.807 110.209 268.807 110.107C268.807 109.654 268.67 109.307 268.396 109.064L268.76 108.859C268.443 108.211 267.906 107.887 267.148 107.887C266.379 107.887 265.736 108.135 265.221 108.631C264.736 109.104 264.436 109.73 264.318 110.512C264.291 110.691 264.277 110.844 264.277 110.969C264.277 111.555 264.449 112.057 264.793 112.475C265.156 112.916 265.625 113.137 266.199 113.137C266.891 113.137 267.471 112.865 267.939 112.322C268.357 111.838 268.631 111.234 268.76 110.512ZM277.965 108.549C277.719 109.854 276.883 110.67 275.457 110.998C276.371 111.994 277.131 112.996 277.736 114.004L275.715 114.736C275.133 113.553 274.355 112.395 273.383 111.262L273.084 111.016L272.885 111.625C272.748 112.062 272.504 112.977 272.152 114.367L272.088 114.379C271.463 114.5 270.744 114.67 269.932 114.889C270.205 113.834 270.531 112.746 270.91 111.625C271.145 110.918 271.514 110.014 272.018 108.912C272.119 108.693 272.266 108.396 272.457 108.021C272.293 108.072 272.15 108.113 272.029 108.145L271.602 106.141C272.605 105.988 273.473 105.912 274.203 105.912C274.371 105.912 274.561 105.922 274.771 105.941C275.35 105.984 275.682 106.014 275.768 106.029C276.072 106.076 276.412 106.182 276.787 106.346C277.607 106.686 278.018 107.27 278.018 108.098C278.018 108.215 278 108.365 277.965 108.549ZM276.178 108.355C276.178 108.043 275.969 107.811 275.551 107.658C275.43 107.611 275.232 107.588 274.959 107.588H274.807C274.564 107.6 274.236 107.662 273.822 107.775L274.244 107.992C274.104 108.238 273.957 108.545 273.805 108.912C273.793 108.939 273.715 109.15 273.57 109.545L274.074 109.527C274.598 109.516 275.039 109.439 275.398 109.299C275.918 109.096 276.178 108.781 276.178 108.355ZM285.916 110.775C285.76 111.303 285.445 112.504 284.973 114.379L284.908 114.396C284.385 114.494 283.666 114.67 282.752 114.924C282.807 114.709 283.043 113.963 283.461 112.686L284.076 110.775C283.951 110.369 283.822 109.787 283.689 109.029C283.514 108.029 283.406 107.439 283.367 107.26C283.262 106.783 283.145 106.418 283.016 106.164H284.832C284.906 106.406 284.984 106.816 285.066 107.395L285.348 109.234C285.477 109.02 285.861 108.398 286.502 107.371C286.877 106.766 287.188 106.355 287.434 106.141L289.379 105.871C288.953 106.27 288.162 107.348 287.006 109.105C286.529 109.824 286.166 110.381 285.916 110.775ZM296.891 107.734L296.387 108.068C296.551 108.541 296.633 108.945 296.633 109.281C296.633 109.523 296.596 109.861 296.521 110.295C296.287 111.662 295.779 112.75 294.998 113.559C294.143 114.445 293.051 114.889 291.723 114.889C290.637 114.889 289.789 114.514 289.18 113.764C288.617 113.068 288.336 112.166 288.336 111.057C288.336 110.818 288.35 110.564 288.377 110.295C288.518 109.107 289.037 108.084 289.936 107.225C290.857 106.35 291.91 105.912 293.094 105.912C294.883 105.912 296.148 106.52 296.891 107.734ZM294.553 110.512C294.584 110.344 294.6 110.209 294.6 110.107C294.6 109.654 294.463 109.307 294.189 109.064L294.553 108.859C294.236 108.211 293.699 107.887 292.941 107.887C292.172 107.887 291.529 108.135 291.014 108.631C290.529 109.104 290.229 109.73 290.111 110.512C290.084 110.691 290.07 110.844 290.07 110.969C290.07 111.555 290.242 112.057 290.586 112.475C290.949 112.916 291.418 113.137 291.992 113.137C292.684 113.137 293.264 112.865 293.732 112.322C294.15 111.838 294.424 111.234 294.553 110.512ZM304.977 105.912C304.824 106.279 304.562 107.059 304.191 108.25C303.824 109.438 303.541 110.314 303.342 110.881C302.787 112.447 302.154 113.531 301.443 114.133C300.842 114.637 300.061 114.889 299.1 114.889C298.615 114.889 298.135 114.719 297.658 114.379C296.975 113.879 296.633 113.146 296.633 112.182C296.633 111.779 296.691 111.346 296.809 110.881C297.18 109.428 297.764 107.848 298.561 106.141L300.482 105.912C300.057 106.936 299.781 107.604 299.656 107.916C299.18 109.123 298.848 110.111 298.66 110.881C298.594 111.17 298.561 111.453 298.561 111.73C298.561 112.59 298.869 113.02 299.486 113.02C300.189 113.02 300.807 112.307 301.338 110.881L303.184 105.912H304.977Z" fill="black"/>
<path d="M119.712 97.3605V39H122.306V99.9543H63.9453L62 97.3605H119.712Z" fill="black"/>
<rect x="62.4857" y="39.4857" width="57.3889" height="57.3889" fill="#D99E41" stroke="black" stroke-width="1.6223"/>
<path d="M119.064 51.9689C107.962 51.9689 80.5889 53.917 63.2969 42.8961L63.2969 82.2763C82.102 95.1341 100.475 95.4401 119.064 90.542V51.9689Z" fill="#E9AE52"/>
<path d="M104.342 61.3971L102.884 66.0074H100.983C99.124 66.0074 97.5133 66.0285 96.1508 66.0708L97.545 66.8154C96.5205 68.7587 95.2795 72.1174 93.822 76.8913C93.2833 78.708 92.6232 81.1742 91.8416 84.2899L91.6673 84.3374C90.2521 84.6015 88.3087 85.0768 85.8372 85.7633C86.6082 82.806 87.4954 79.8487 88.4988 76.8913C89.1114 75.0536 90.1148 72.6085 91.5089 69.5562C91.8363 68.7957 92.3644 67.692 93.0932 66.245C91.097 66.4351 88.8157 66.6939 86.2491 67.0213L87.6591 62.2685C89.9511 62.0995 92.5704 61.9252 95.5171 61.7457C97.3232 61.6401 100.265 61.5239 104.342 61.3971Z" fill="black"/>
<path d="M110.796 90.6927L113.99 90.2879C113.812 90.7241 113.637 91.1917 113.463 91.6908L108.683 92.0623C108.96 91.3414 109.227 90.8091 109.482 90.4653C109.981 89.7888 110.439 89.2806 110.857 88.9405C111.526 88.3971 112.352 87.996 113.335 87.7372C113.675 87.6485 113.845 87.4248 113.845 87.0663C113.845 86.8001 113.67 86.606 113.319 86.484C113.274 86.4693 113.175 86.4619 113.019 86.4619C112.409 86.4619 111.81 86.5487 111.223 86.7225C111.352 86.4304 111.513 86.0349 111.705 85.5359C111.764 85.3991 111.794 85.2882 111.794 85.2032H112.637C112.999 85.2032 113.274 85.2327 113.463 85.2919C113.703 85.3141 113.991 85.3935 114.328 85.5303C114.953 85.7891 115.265 86.2271 115.265 86.8445C115.265 87.3139 115.065 87.7335 114.666 88.1032C114.041 88.6946 113.243 89.1068 112.271 89.3397C111.934 89.458 111.585 89.7057 111.223 90.0827C111.075 90.2343 110.933 90.4376 110.796 90.6927Z" fill="black"/>
<path d="M149.704 131.406V73.0459H152.298V134H93.9375L91.9922 131.406H149.704Z" fill="black"/>
<rect x="92.4779" y="73.5316" width="57.3889" height="57.3889" fill="#D99E41" stroke="black" stroke-width="1.6223"/>
<path d="M149.056 86.0148C137.954 86.0148 110.581 87.9629 93.2891 76.942L93.2891 116.322C112.094 129.18 130.467 129.486 149.056 124.588V86.0148Z" fill="#E9AE52"/>
<path d="M135.046 100.37L133.684 101.273C134.128 102.551 134.349 103.644 134.349 104.553C134.349 105.207 134.249 106.121 134.048 107.293C133.415 110.99 132.042 113.932 129.929 116.118C127.616 118.515 124.664 119.714 121.073 119.714C118.137 119.714 115.845 118.7 114.197 116.672C112.676 114.792 111.916 112.353 111.916 109.353C111.916 108.709 111.953 108.022 112.027 107.293C112.407 104.083 113.812 101.315 116.241 98.9918C118.734 96.626 121.58 95.443 124.78 95.443C129.618 95.443 133.04 97.0854 135.046 100.37ZM128.725 107.88C128.81 107.425 128.852 107.061 128.852 106.786C128.852 105.561 128.482 104.621 127.743 103.966L128.725 103.412C127.87 101.659 126.417 100.782 124.368 100.782C122.288 100.782 120.55 101.453 119.156 102.794C117.846 104.072 117.033 105.767 116.716 107.88C116.642 108.365 116.605 108.777 116.605 109.115C116.605 110.7 117.07 112.057 118 113.187C118.982 114.38 120.249 114.977 121.802 114.977C123.671 114.977 125.24 114.243 126.507 112.775C127.637 111.465 128.377 109.834 128.725 107.88Z" fill="black"/>
<path d="M140.788 124.739L143.982 124.334C143.804 124.77 143.629 125.238 143.455 125.737L138.675 126.108C138.953 125.387 139.219 124.855 139.474 124.511C139.973 123.835 140.431 123.326 140.849 122.986C141.518 122.443 142.344 122.042 143.328 121.783C143.668 121.694 143.838 121.471 143.838 121.112C143.838 120.846 143.662 120.652 143.311 120.53C143.267 120.515 143.167 120.508 143.011 120.508C142.402 120.508 141.803 120.595 141.215 120.768C141.344 120.476 141.505 120.081 141.697 119.582C141.756 119.445 141.786 119.334 141.786 119.249H142.629C142.991 119.249 143.267 119.279 143.455 119.338C143.695 119.36 143.984 119.439 144.32 119.576C144.945 119.835 145.257 120.273 145.257 120.89C145.257 121.36 145.058 121.779 144.658 122.149C144.034 122.741 143.235 123.153 142.263 123.386C141.926 123.504 141.577 123.752 141.215 124.129C141.067 124.28 140.925 124.484 140.788 124.739Z" fill="black"/>
</svg>
