<svg width="268" height="180" viewBox="0 0 268 180" fill="none" xmlns="http://www.w3.org/2000/svg">
<g filter="url(#filter0_di_270_1940)">
<path d="M220 40.5C169.075 52.6027 161.015 52.6867 148 10C127.083 52.1358 120.5 57.5 90 25C75.5 60 48 57.5 21.5 48.5C37.5 72 47.5 82 30.5 95C56 100.415 44 105.5 40.5 141.5C64.5 119 114 109 124 141.5C139 104.5 174.5 114.5 206 141.5C200 100.415 204.5 92.0851 238.5 95C206 77.5 203 70 220 40.5Z" fill="white"/>
<path d="M221.475 41.3499L223.444 37.9319L219.606 38.844C206.859 41.8735 196.895 44.1253 188.879 45.1547C180.854 46.1854 175 45.9569 170.388 44.2048C165.848 42.4797 162.296 39.1925 159.05 33.6193C155.776 27.997 152.878 20.1626 149.628 9.50358L148.379 5.40783L146.475 9.24316C141.243 19.7841 136.956 27.9205 132.996 33.7315C129.007 39.5843 125.545 42.7731 122.082 43.8651C118.739 44.9192 114.948 44.1436 109.917 40.8663C104.869 37.5775 98.857 31.9505 91.2412 23.8352L89.4367 21.9124L88.4275 24.3485C81.3519 41.4275 71.2502 49.1013 59.8863 51.5872C48.3606 54.1084 35.2336 51.3666 22.0474 46.8883L17.2294 45.252L20.093 49.4579C21.7906 51.9513 23.4047 54.2703 24.9223 56.4506C27.0189 59.4628 28.9311 62.2102 30.6245 64.7865C33.5337 69.2126 35.6481 72.9188 36.7617 76.23C37.8587 79.4922 37.9522 82.274 36.9266 84.9445C35.8815 87.6659 33.5896 90.4946 29.466 93.6479L26.526 95.8962L30.1464 96.665C36.5362 98.0219 40.2203 99.2995 42.2927 100.85C43.2762 101.586 43.8628 102.362 44.2137 103.235C44.5746 104.133 44.7311 105.246 44.6742 106.715C44.5754 109.263 43.8694 112.47 42.907 116.842C42.7252 117.668 42.5342 118.535 42.3365 119.448C41.1112 125.102 39.6899 132.242 38.8059 141.335L38.3688 145.831L41.6642 142.742C53.3811 131.757 71.3905 123.793 87.6276 122.572C95.7321 121.963 103.271 123.043 109.335 126.141C115.353 129.216 120.01 134.321 122.373 142.001L123.78 146.573L125.577 142.139C129.23 133.13 134.067 127.132 139.637 123.522C145.197 119.918 151.634 118.597 158.668 119.196C172.829 120.401 189.244 129.38 204.892 142.792L208.341 145.748L207.684 141.254C206.187 130.999 205.361 122.888 205.468 116.52C205.575 110.132 206.621 105.725 208.661 102.702C210.651 99.7526 213.754 97.8818 218.565 96.9279C223.431 95.9634 229.89 95.9702 238.355 96.6959L246.544 97.398L239.307 93.5013C231.195 89.1336 225.025 85.4418 220.563 81.9147C216.106 78.3912 213.49 75.1378 212.296 71.6923C211.11 68.2722 211.239 64.4165 212.773 59.5077C214.316 54.57 217.237 48.704 221.475 41.3499Z" stroke="#090909" stroke-width="3.40426" stroke-miterlimit="16"/>
</g>
<mask id="mask0_270_1940" style="mask-type:alpha" maskUnits="userSpaceOnUse" x="21" y="10" width="218" height="132">
<path d="M220 40.5C169.075 52.6027 161.015 52.6867 148 10C127.083 52.1358 120.5 57.5 90 25C75.5 60 48 57.5 21.5 48.5C37.5 72 47.5 82 30.5 95C56 100.415 44 105.5 40.5 141.5C64.5 119 114 109 124 141.5C139 104.5 174.5 114.5 206 141.5C200 100.415 204.5 92.0851 238.5 95C206 77.5 203 70 220 40.5Z" fill="white"/>
</mask>
<g mask="url(#mask0_270_1940)">
<path d="M105.596 194.309L211.5 151C214.743 139.571 145 74.5002 122 131C122 123.5 114.046 113.228 105.596 112C71.1915 107 62.5 120.5 52 120.5C55.5 112 58.317 104 42 92.0002C51.317 75.0002 36.5 52.5002 16.5 47.0002L-4 19.6704L11.9149 94.564L28.5532 165.032L105.596 194.309Z" fill="#D9D9D9"/>
</g>
<path d="M42.4229 63.3669L44.0121 78.0143L49.4671 75.8846L54.9221 73.7548L61.5681 117.284L67.4112 115L73.7991 104.904L76.1441 106.207C87.3797 102.859 100.655 100.185 114.768 98.6899C118.359 100.326 122.713 100.829 126.948 98.6899L131.646 98.4854C134 100.285 139.816 101.254 142.468 98.784C149.35 99.2257 155.469 100.653 161.136 102.516C162.504 102.966 162.812 105.771 162.812 105.771C163.363 105.759 177.838 109.73 183.802 113.851L184.863 109.683L183.671 107.7L188.879 109.479L192.433 102.322L193.02 96.0439L188.189 94.4693L191.538 94.0603L194.61 86.1488L197.317 87.0096C198.891 82.2228 200.16 77.3415 201.116 72.395L195.822 70.7591L201.186 70.5383L204.146 68.3912L204.578 62.596L196.611 60.3671L185.013 60.7659L184.689 62.8557L172.519 60.2199L174.481 58.4797C174.875 56.0095 174.318 53.3675 173.267 50.6438L162.375 52.0016L159.991 49.9097H154.036L151.801 57.3448L152.729 59.8477L147.697 57.0156L137.844 56.5596L134.252 61.1482L131.308 56.4307L119.839 56.6352L118.301 59.4224L116.827 56.7825L106.627 57.5677L106.785 60.3467L102.605 57.445L90.6259 59.4899L90.3781 63.2647L83.3942 65.3627L76.4103 67.4607L77.0043 65.1705L79.7179 64.5898L80.869 52.5066L42.4229 63.3669Z" fill="#17325B"/>
<path d="M198.347 98.5263L203.869 100.694L195.693 111.18L191.769 109.857L198.347 98.5263ZM190.532 111.65L194.428 112.922L191.669 116.771L188.371 115.362L190.532 111.65Z" fill="#17325B"/>
<path d="M156.901 51.9034L159.084 52.4964L157.546 56.5616L155.361 55.3715L156.901 51.9034Z" fill="#FAA31B"/>
<path d="M70.4894 92.3508L71.6486 102.371L65.2034 112.955L62.2214 86.5148L63.3499 86.3103C63.5088 86.2818 63.6727 86.3027 63.8193 86.3704C63.9658 86.4381 64.088 86.5492 64.1691 86.6886L65.3734 88.7846C65.454 88.9246 65.576 89.0363 65.7226 89.1043C65.8693 89.1724 66.0334 89.1936 66.1926 89.1649L66.9319 89.0341C67.0913 89.0056 67.2556 89.0271 67.4023 89.0955C67.549 89.164 67.6708 89.2761 67.7512 89.4165L69.2831 92.1095C69.3783 92.2761 69.5313 92.4021 69.7132 92.4635C69.8952 92.525 70.0934 92.5176 70.2703 92.4428L70.4894 92.3508Z" fill="#D52A28"/>
<path d="M67.5648 68.1274L70.4894 92.3508L70.26 92.451C70.0831 92.5258 69.8849 92.5331 69.703 92.4717C69.521 92.4103 69.368 92.2843 69.2729 92.1177L67.7409 89.4246C67.6606 89.2843 67.5387 89.1722 67.392 89.1037C67.2454 89.0352 67.0811 89.0138 66.9217 89.0422L66.1823 89.1731C66.0232 89.2018 65.859 89.1806 65.7124 89.1125C65.5657 89.0444 65.4437 88.9327 65.3631 88.7928L64.1589 86.6968C64.0777 86.5574 63.9556 86.4463 63.809 86.3786C63.6625 86.3109 63.4986 86.2899 63.3396 86.3185L62.2112 86.523L59.5487 70.8838L67.5648 68.1274Z" fill="#FAA31B"/>
<path d="M46.1462 64.3341L47.375 73.3132L78.0283 62.2423L78.3109 55.8684C69.8873 56.8929 57.7915 60.4612 46.1462 64.3341Z" fill="#FAA31B"/>
<path d="M55.4096 62.3547L46.7729 64.827L47.9772 71.5934L47.3566 65.4609L55.4096 62.3547Z" fill="white" fill-opacity="0.78"/>
<path d="M88.9567 66.6653C85.7208 65.8698 72.4494 70.4851 72.2016 71.5975C72.0444 74.4677 72.1541 77.3462 72.5293 80.1961L74.8354 78.7872C74.9158 78.7215 75.0086 78.6726 75.1083 78.6434C75.208 78.6142 75.3125 78.6054 75.4157 78.6174C75.5189 78.6294 75.6187 78.662 75.709 78.7134C75.7993 78.7647 75.8783 78.8336 75.9413 78.9161L77.0862 80.6337C77.2043 80.7849 77.3743 80.887 77.5633 80.9206C77.7523 80.9542 77.9471 80.9169 78.1102 80.8157L78.1614 80.7851L77.8501 75.1392L84.4449 73.4338L84.8197 79.4518C84.905 79.4032 84.9795 79.3378 85.0388 79.2596L86.1919 77.7566C86.2984 77.6171 86.449 77.5176 86.6192 77.4742C86.7894 77.4308 86.9694 77.446 87.1299 77.5174L89.1513 78.4069C89.4319 73.8836 89.4728 69.7673 88.9567 66.6653Z" fill="#FAA31B"/>
<path d="M89.1595 78.4069C89.0612 80.0714 89.3049 82.603 89.1595 84.3534C83.6297 87.4984 74.8067 90.6025 73.666 90.2058C73.2686 88.1364 72.9512 84.7951 72.5252 80.1962L74.8313 78.7872C74.9117 78.7215 75.0045 78.6726 75.1042 78.6434C75.2039 78.6142 75.3084 78.6054 75.4116 78.6174C75.5148 78.6294 75.6146 78.6621 75.7049 78.7134C75.7952 78.7647 75.8742 78.8336 75.9372 78.9161L77.0821 80.6338C77.2003 80.7849 77.3702 80.887 77.5592 80.9206C77.7482 80.9542 77.943 80.9169 78.1061 80.8157L78.1573 80.7851L78.2229 83.6847L84.7091 81.0121L84.8156 79.4518C84.9009 79.4032 84.9755 79.3378 85.0347 79.2596L86.1878 77.7566C86.2943 77.6171 86.4449 77.5176 86.6151 77.4742C86.7853 77.4308 86.9653 77.446 87.1258 77.5174L89.1595 78.4069Z" fill="#D52A28"/>
<path d="M74.606 70.8164L87.5272 66.7818L88.5533 67.1785L88.7028 69.1723L88.1375 67.5078L87.2527 67.3156L74.606 70.8164Z" fill="white" fill-opacity="0.78"/>
<path d="M126.592 86.1835L120.962 86.3491L120.648 75.4541V75.4439C120.72 75.3064 120.837 75.197 120.978 75.1331L122.75 74.2681C122.846 74.221 122.951 74.1942 123.059 74.1894C123.166 74.1847 123.273 74.202 123.373 74.2404C123.474 74.2787 123.565 74.3373 123.642 74.4124C123.718 74.4876 123.778 74.5776 123.819 74.6771L124.267 75.7997C124.34 75.9828 124.479 76.1318 124.656 76.2168C124.834 76.3018 125.038 76.3164 125.226 76.2577L126.387 75.8938L126.592 86.1835ZM148.428 86.9851L141.301 86.4739L142.53 76.1023L142.624 76.0778C142.731 76.0468 142.844 76.0393 142.955 76.0556C143.065 76.0719 143.171 76.1118 143.265 76.1725C143.359 76.2332 143.438 76.3133 143.498 76.4074C143.558 76.5014 143.598 76.6073 143.613 76.7178L144.193 80.9057C144.218 81.092 144.309 81.263 144.451 81.3867C144.593 81.5105 144.775 81.5786 144.963 81.5785H145.987C146.115 81.5776 146.242 81.609 146.355 81.6697C146.468 81.7305 146.564 81.8186 146.634 81.9261L147.693 83.5129L147.66 84.7398L148.428 86.9851ZM139.757 74.6893L136.734 78.1431L132.445 76.9796L135.468 73.6935C135.571 73.5788 135.706 73.4972 135.855 73.459C136.005 73.4208 136.162 73.4277 136.308 73.4788L139.757 74.6893Z" fill="#D52A28"/>
<path d="M156.766 62.8107L155.996 68.4218L148.119 67.7491L147.697 83.5088L146.638 81.9179C146.568 81.8105 146.472 81.7223 146.359 81.6616C146.246 81.6008 146.119 81.5694 145.991 81.5703H144.967C144.779 81.5705 144.597 81.5023 144.455 81.3785C144.314 81.2548 144.222 81.0838 144.197 80.8975L143.617 76.7097C143.602 76.5992 143.563 76.4933 143.502 76.3992C143.442 76.3051 143.363 76.225 143.269 76.1643C143.175 76.1036 143.069 76.0638 142.959 76.0474C142.848 76.0311 142.735 76.0387 142.628 76.0696L142.534 76.0942L142.769 71.2478L139.757 74.6893L136.308 73.4767C136.162 73.4256 136.005 73.4188 135.855 73.457C135.706 73.4952 135.571 73.5768 135.468 73.6914L132.445 76.9796L129.449 76.2434L126.289 70.9268L126.387 75.9019L125.226 76.2659C125.038 76.3246 124.834 76.3099 124.656 76.225C124.479 76.14 124.34 75.991 124.267 75.8079L123.819 74.6852C123.778 74.5858 123.718 74.4957 123.642 74.4206C123.565 74.3455 123.474 74.2869 123.373 74.2485C123.273 74.2102 123.166 74.1928 123.059 74.1976C122.951 74.2024 122.846 74.2292 122.75 74.2763L120.978 75.1249C120.837 75.1889 120.72 75.2983 120.648 75.4357L120.196 61.3711L128.574 61.1666L133.572 69.8573L138.35 61.3139L156.766 62.8107Z" fill="#FAA31B"/>
<path d="M121.719 61.7719L128.171 61.7515L132.179 68.2848L127.939 62.0582L121.719 61.7719ZM141.004 61.7515L155.871 63.4998L155.947 67.0231L156.371 63.0827L141.004 61.7515Z" fill="white" fill-opacity="0.78"/>
<path d="M98.9185 88.4165C92.7374 93.1197 82.4009 96.3526 72.5252 97.6982L71.4377 92.5062C77.3565 91.3223 87.8631 89.1567 92.8624 85.2327V76.4336L93.7164 75.4112C93.7938 75.319 93.8915 75.2459 94.002 75.1979C94.1124 75.1498 94.2325 75.128 94.3528 75.1341C94.4731 75.1402 94.5904 75.1742 94.6953 75.2333C94.8002 75.2923 94.89 75.3749 94.9575 75.4746L96.8008 78.1758C96.8631 78.2701 96.9465 78.3485 97.0445 78.4049L98.5785 79.3148L98.9185 88.4165ZM115.854 74.7159L115.629 87.6538L113.841 86.7643L107.34 87.3941L103.615 80.2371H104.073C104.27 80.2348 104.459 80.1622 104.606 80.0326L106.179 78.5603C106.258 78.4882 106.322 78.4005 106.365 78.3026C106.408 78.2047 106.431 78.0988 106.431 77.9918V76.7178C106.43 76.5901 106.462 76.4642 106.522 76.3514C106.581 76.2385 106.668 76.142 106.774 76.0705C106.88 75.999 107.002 75.9546 107.13 75.9413C107.257 75.9279 107.385 75.946 107.504 75.994L109.532 76.7996L110.76 79.5009L110.807 76.9878C110.941 76.9108 111.05 76.7973 111.121 76.6606L111.141 76.6136C111.193 76.5057 111.27 76.4114 111.365 76.3379C111.46 76.2645 111.57 76.2139 111.688 76.1902C111.805 76.1664 111.927 76.1701 112.043 76.201C112.158 76.2319 112.266 76.2891 112.356 76.3682L112.819 76.7771C112.899 76.8471 112.992 76.9001 113.093 76.9329C113.195 76.9656 113.301 76.9775 113.407 76.9677C113.513 76.958 113.616 76.9268 113.71 76.8761C113.803 76.8254 113.885 76.7563 113.951 76.6729L115.248 75.0186C115.319 74.9257 115.411 74.8503 115.516 74.7979C115.621 74.7455 115.736 74.7175 115.854 74.7159Z" fill="#D52A28"/>
<path d="M102.4 61.1482L109.536 76.7915L107.508 75.9858C107.389 75.9378 107.261 75.9197 107.134 75.9331C107.006 75.9464 106.884 75.9908 106.778 76.0623C106.672 76.1339 106.586 76.2303 106.526 76.3432C106.466 76.4561 106.435 76.5819 106.435 76.7097V77.9877C106.435 78.0948 106.412 78.2006 106.369 78.2985C106.326 78.3964 106.262 78.4842 106.183 78.5562L104.61 80.0285C104.463 80.1581 104.274 80.2307 104.078 80.233H103.619L98.2017 69.2561L98.5806 79.321L97.0466 78.411C96.9486 78.3546 96.8651 78.2762 96.8028 78.182L94.9596 75.4807C94.8921 75.3811 94.8023 75.2985 94.6973 75.2394C94.5924 75.1803 94.4752 75.1464 94.3548 75.1402C94.2345 75.1341 94.1144 75.1559 94.004 75.204C93.8936 75.2521 93.7958 75.3251 93.7185 75.4173L92.8644 76.4397V64.1256L102.4 61.1482ZM116.093 61.5859L115.854 74.7159C115.738 74.7176 115.624 74.7452 115.52 74.7965C115.416 74.8477 115.325 74.9215 115.254 75.0124L113.957 76.6667C113.891 76.7501 113.809 76.8193 113.716 76.87C113.622 76.9207 113.519 76.9518 113.413 76.9616C113.308 76.9714 113.201 76.9595 113.1 76.9267C112.998 76.894 112.905 76.841 112.825 76.771L112.362 76.362C112.272 76.283 112.165 76.2257 112.049 76.1949C111.933 76.164 111.811 76.1603 111.694 76.184C111.576 76.2078 111.466 76.2584 111.371 76.3318C111.276 76.4053 111.2 76.4996 111.147 76.6074L111.127 76.6545C111.056 76.7912 110.947 76.9047 110.814 76.9816L111.098 61.9396L116.093 61.5859Z" fill="#FAA31B"/>
<path d="M98.4126 80.6644L98.7055 88.3449L93.9683 90.948L98.4556 88.2386L98.4126 80.6644ZM97.6282 62.9314L102.49 61.3568L104.231 65.1684L102.294 61.7924L97.6282 62.9314ZM111.528 62.1257L113.454 62.4897L115.854 61.9928L111.528 62.1257Z" fill="white" fill-opacity="0.78"/>
<path d="M159.084 67.1949L159.879 69.0782L165.538 66.5999L166.035 59.7598L170.701 58.9664L169.916 52.9831L161.368 54.754L161.964 65.9067L159.084 67.1949Z" fill="#D52A28"/>
<path d="M165.577 54.2325L161.501 54.891L161.831 59.4285V55.0893L165.577 54.2325Z" fill="white" fill-opacity="0.78"/>
<path d="M154.921 72.2805L160.166 72.8939C160.356 76.816 159.121 81.5274 157.679 88.1016C156.178 88.1108 154.683 87.9042 153.241 87.4881C153.231 84.153 153.993 78.8609 154.921 72.2805Z" fill="#D52A28"/>
<path d="M157.677 72.8653L155.066 72.7038L154.236 78.687L155.275 73.0902L157.677 72.8653Z" fill="white" fill-opacity="0.78"/>
<path d="M188.879 86.6334L186.325 92.2711C175.098 91.2487 166.254 89.7273 162.027 88.6046C162.437 85.8768 163.438 81.9609 164.151 79.0572L164.825 78.8813C164.972 78.8381 165.104 78.7545 165.206 78.64L166.195 77.5378C166.289 77.4321 166.41 77.3539 166.545 77.3115C166.68 77.2692 166.824 77.2644 166.962 77.2976C167.1 77.3308 167.226 77.4008 167.326 77.5C167.427 77.5992 167.499 77.724 167.534 77.8609L168.473 81.4824C168.516 81.6492 168.614 81.7968 168.751 81.9022C168.888 82.0077 169.055 82.065 169.228 82.0652L171.42 81.5805L171.16 82.7666L188.879 86.6334Z" fill="#D52A28"/>
<path d="M181.32 64.3914L180.763 69.5751H173.951L171.42 81.5805L169.222 82.0652C169.049 82.0649 168.882 82.0076 168.745 81.9022C168.608 81.7968 168.51 81.6492 168.466 81.4824L167.528 77.8609C167.493 77.724 167.421 77.5992 167.32 77.5C167.219 77.4007 167.094 77.3308 166.956 77.2976C166.818 77.2644 166.674 77.2692 166.539 77.3115C166.404 77.3538 166.283 77.4321 166.189 77.5378L165.2 78.64C165.098 78.7544 164.966 78.838 164.819 78.8813L164.145 79.0572C165.349 74.1904 166.918 69.113 168.686 63.9252C172.892 63.6736 175.997 63.5387 181.32 64.3914Z" fill="#FAA31B"/>
<path d="M168.227 66.6612L169.087 64.4712H174.713L180.736 64.6879L174.481 64.8822H169.419L168.227 66.6612Z" fill="white" fill-opacity="0.78"/>
<path d="M141.004 96.8004C159.14 97.7554 173.941 101.258 186.354 106.937L189.033 101.234C147.883 89.5023 112.069 90.6331 81.7476 98.1869C90.8 96.0704 102.615 94.774 112.509 94.9151C117.077 95.6758 119.823 99.698 126.608 94.9805L134.417 95.3445C136.293 98.195 138.684 99.0927 141.004 96.8004Z" fill="#D52A28"/>
<path d="M115.491 92.8989C116.161 92.8375 150.923 90.719 186.354 100.418C186.321 100.395 150.312 89.5944 115.491 92.8989Z" fill="white" fill-opacity="0.78"/>
<path d="M195.519 73.898C195.019 77.0103 194.753 80.5745 193.033 83.5088C184.292 83.1408 182.324 82.2574 175.739 81.055L177.863 76.1473L188.967 77.3742C189.149 77.3103 189.3 77.1803 189.389 77.0103L189.799 77.1043C189.914 77.1304 190.033 77.1304 190.147 77.1043C190.262 77.0782 190.369 77.0268 190.461 76.9538C190.553 76.8807 190.628 76.788 190.679 76.6824C190.73 76.5768 190.757 76.461 190.757 76.3436V74.8918C190.757 74.8178 190.747 74.7442 190.727 74.673L190.262 73.0494C190.218 72.9033 190.219 72.7474 190.264 72.6017C190.309 72.456 190.397 72.3271 190.516 72.2314L195.519 73.898Z" fill="#D52A28"/>
<path d="M201.672 63.2647L201.504 67.5589L190.755 68.5016L189.963 72.0576L190.51 72.2396C190.391 72.3352 190.303 72.4642 190.258 72.6099C190.212 72.7556 190.212 72.9114 190.256 73.0575L190.725 74.6607C190.745 74.7319 190.755 74.8055 190.755 74.8795V76.3314C190.755 76.4487 190.728 76.5645 190.677 76.6701C190.625 76.7757 190.551 76.8685 190.459 76.9415C190.367 77.0145 190.26 77.066 190.145 77.092C190.031 77.1181 189.911 77.1181 189.797 77.092L189.387 76.998C189.598 76.4052 189.668 75.7718 189.592 75.1474C186.063 73.8816 183.571 73.6424 183.774 73.2252C184.135 69.3895 185.328 65.6782 187.27 62.3486C192.83 61.9866 197.393 61.9662 201.672 63.2647Z" fill="#FAA31B"/>
<path d="M201.43 63.4528L201.284 67.3933L191.282 68.1989L201.196 67.2317L201.43 63.4528Z" fill="white" fill-opacity="0.78"/>
<path d="M168.985 103.931C174.07 105.931 177.609 107.612 180.212 109.945C180.692 109.682 181.1 109.304 181.398 108.845C181.697 108.386 181.877 107.86 181.922 107.315C178.825 105.593 174.189 104.741 168.985 103.931Z" fill="#D52A28"/>
<path d="M173.699 104.853C176.851 105.432 180.335 106.213 181.785 107.399L181.375 108.481L181.617 107.483C180.28 106.301 176.892 105.563 173.699 104.853Z" fill="white" fill-opacity="0.78"/>
<defs>
<filter id="filter0_di_270_1940" x="0.0228148" y="0.81543" width="267.5" height="178.745" filterUnits="userSpaceOnUse" color-interpolation-filters="sRGB">
<feFlood flood-opacity="0" result="BackgroundImageFix"/>
<feColorMatrix in="SourceAlpha" type="matrix" values="0 0 0 0 0 0 0 0 0 0 0 0 0 0 0 0 0 0 127 0" result="hardAlpha"/>
<feOffset dy="14.9787"/>
<feGaussianBlur stdDeviation="6.46808"/>
<feComposite in2="hardAlpha" operator="out"/>
<feColorMatrix type="matrix" values="0 0 0 0 0 0 0 0 0 0 0 0 0 0 0 0 0 0 0.25 0"/>
<feBlend mode="normal" in2="BackgroundImageFix" result="effect1_dropShadow_270_1940"/>
<feBlend mode="normal" in="SourceGraphic" in2="effect1_dropShadow_270_1940" result="shape"/>
<feColorMatrix in="SourceAlpha" type="matrix" values="0 0 0 0 0 0 0 0 0 0 0 0 0 0 0 0 0 0 127 0" result="hardAlpha"/>
<feOffset dy="2.7234"/>
<feGaussianBlur stdDeviation="3.50638"/>
<feComposite in2="hardAlpha" operator="arithmetic" k2="-1" k3="1"/>
<feColorMatrix type="matrix" values="0 0 0 0 0 0 0 0 0 0 0 0 0 0 0 0 0 0 0.25 0"/>
<feBlend mode="normal" in2="shape" result="effect2_innerShadow_270_1940"/>
</filter>
</defs>
</svg>
