<svg width="51" height="52" viewBox="0 0 51 52" fill="none" xmlns="http://www.w3.org/2000/svg">
<path d="M48.8495 49.1181V0.730957H51V51.2686H2.6129L1 49.1181H48.8495Z" fill="black"/>
<rect x="1.40169" y="1.13362" width="47.5816" height="47.5816" fill="#D99E41" stroke="black" stroke-width="1.34506"/>
<path d="M48.3108 11.4838C39.1061 11.4838 16.4111 13.099 2.07422 3.96149L2.07424 36.612C17.6657 47.2724 32.8986 47.5262 48.3108 43.4651V11.4838Z" fill="#E9AE52"/>
<path d="M19.6594 33.3251C20.4037 31.2147 20.9904 29.783 21.4195 29.0299C24.9661 28.6446 27.291 28.1542 28.3944 27.5587C29.3489 27.1559 29.8261 26.4991 29.8261 25.5884C29.8261 24.8879 29.3576 24.3668 28.4207 24.0253C28.1492 23.9202 27.707 23.8677 27.094 23.8677C25.6228 23.8939 24.0466 24.3099 22.3653 25.1155L21.4064 20.6232C23.6569 20.2817 24.988 20.111 25.3995 20.111C27.9828 20.1285 29.9137 20.4525 31.1922 21.083C33.0312 22.02 33.9506 23.4167 33.9506 25.2732C33.6179 27.8214 31.8621 29.6647 28.6834 30.8031C27.0809 31.3023 25.7629 31.5519 24.7296 31.5519L24.283 32.9179L19.6594 33.3251ZM18.9107 35.742L23.6788 35.1378C23.4424 35.9172 23.0965 37.2263 22.6411 39.0653L22.4966 39.0915C21.0955 39.363 19.4842 39.7439 17.6628 40.2343C18.0569 38.6493 18.4728 37.1519 18.9107 35.742Z" fill="black"/>
<path d="M44.2605 39.0889L42.1411 44.7299L40.7389 44.9506C40.7604 44.8831 40.8355 44.6916 40.9642 44.3759L41.6354 42.7162C41.7611 42.4159 41.9756 41.855 42.2791 41.0336C42.4323 40.534 42.6744 39.9073 43.0055 39.1533L44.2605 39.0889Z" fill="black"/>
</svg>
